inDegrees=no
num_controls=7
num_derivatives=13
num_iterations=102
num_multipliers=7
num_parameters=0
num_slacks=7
num_states=26
objective=0.430339
objective_accelerations=0.051530
objective_balance=0.006872
objective_effort=0.031869
objective_height=0.338926
objective_ligament=0.001142
solver_duration=1309.004075
status=Solve_Succeeded
success=true
DataType=double
version=3
OpenSimVersion=4.5
endheader
time	/jointset/ground_pelvis/pelvis_tilt/value	/jointset/ground_pelvis/pelvis_tx/value	/jointset/ground_pelvis/pelvis_ty/value	/jointset/hip_l/hip_flexion_l/value	/jointset/hip_l/hip_adduction_l/value	/jointset/hip_l/hip_rotation_l/value	/jointset/back/lumbar_extension/value	/jointset/patellofemoral_l/patellar_flexion_l/value	/jointset/knee_l/knee_flexion_l/value	/jointset/knee_l/knee_adduction_l/value	/jointset/knee_l/knee_rotation_l/value	/jointset/ankle_l/ankle_angle_l/value	/jointset/subtalar_l/subtalar_angle_l/value	/jointset/ground_pelvis/pelvis_tilt/speed	/jointset/ground_pelvis/pelvis_tx/speed	/jointset/ground_pelvis/pelvis_ty/speed	/jointset/hip_l/hip_flexion_l/speed	/jointset/hip_l/hip_adduction_l/speed	/jointset/hip_l/hip_rotation_l/speed	/jointset/back/lumbar_extension/speed	/jointset/patellofemoral_l/patellar_flexion_l/speed	/jointset/knee_l/knee_flexion_l/speed	/jointset/knee_l/knee_adduction_l/speed	/jointset/knee_l/knee_rotation_l/speed	/jointset/ankle_l/ankle_angle_l/speed	/jointset/subtalar_l/subtalar_angle_l/speed	/forceset/tau_hip_flexion_l	/forceset/tau_hip_adduction_l	/forceset/tau_hip_rotation_l	/forceset/tau_knee_flexion_l	/forceset/tau_ankle_angle_l	/forceset/tau_subtalar_angle_l	/forceset/tau_lumbar_extension	lambda_cid13_p0	lambda_cid13_p1	lambda_cid13_p2	lambda_cid13_p3	lambda_cid13_p4	lambda_cid13_p5	lambda_cid14_p0	/jointset/ground_pelvis/pelvis_tilt/accel	/jointset/ground_pelvis/pelvis_tx/accel	/jointset/ground_pelvis/pelvis_ty/accel	/jointset/hip_l/hip_flexion_l/accel	/jointset/hip_l/hip_adduction_l/accel	/jointset/hip_l/hip_rotation_l/accel	/jointset/back/lumbar_extension/accel	/jointset/patellofemoral_l/patellar_flexion_l/accel	/jointset/knee_l/knee_flexion_l/accel	/jointset/knee_l/knee_adduction_l/accel	/jointset/knee_l/knee_rotation_l/accel	/jointset/ankle_l/ankle_angle_l/accel	/jointset/subtalar_l/subtalar_angle_l/accel	gamma_cid13_p0	gamma_cid13_p1	gamma_cid13_p2	gamma_cid13_p3	gamma_cid13_p4	gamma_cid13_p5	gamma_cid14_p0
1.5	-0.3415163357076735	-0.03333842334920452	0.7603969031014436	1.193276657962631	-0.30484833354794	0.01658384986491993	-0.3412299313131646	0.8356510878929677	0.8356510878928028	-0.1731149737594887	0.1676715335723037	0.1664403894965441	-0.01895328091207449	0.4367741266898357	0.1590848644807318	0.5229627136622106	-2.147165866487375	-0.01846229726626014	-0.7137526622206081	0.5732622604884878	-2.134621934638061	-2.13462193463771	0.007537359405255424	-0.04113044218470253	-0.5499712613165206	-0.1111785544575526	-0.1972985254209108	0.01968423260073595	-0.0258354381563814	-0.2561276152976387	0.09842009895987437	0.03849150601187713	0.1949030235226778	-6.573197194553561	-18.1738912202005	5.473901772087967	-2.297594128633517	-606.9569849062816	-58.69890070006747	-19.34532344212365	0.5432640896497519	0.570375134679441	-0.419938653451196	-1.387649222452286	0.6952282111479652	-0.366791891696183	1.676628180445326	-1.404733268448801	-1.404733268448793	0.04046744609150892	-0.08854971381105758	-0.5909216152546716	0.7234851324335519	4.187840385025931e-07	3.811986098850399e-07	-2.664230686246953e-06	-3.009543325747636e-07	5.035427003586249e-07	1.89940810474781e-07	4.117326683472326e-07
1.51	-0.3371215932646522	-0.03171917510382673	0.7656044654985051	1.171737761267111	-0.3049992678088864	0.009431125962724976	-0.3354147559201846	0.8142369784355818	0.8142369784355267	-0.1730416104174562	0.1672555845232007	0.1609115709728747	-0.02003030786935352	0.4421127132618472	0.1647474539027323	0.5184400183412035	-2.160310785070021	-0.01170160239268238	-0.7167018198682651	0.5896893997487604	-2.147891013874718	-2.147891013874689	0.007131500486653486	-0.042055939713746	-0.5556930277310373	-0.1042060704397242	-0.1909321137141378	0.01920208905079427	-0.02573120697203039	-0.2532485091626178	0.1000673907651457	0.03837085798756323	0.1895867081341141	-5.805321383461071	-18.35446058800213	5.615218870828577	-2.566829921618789	-602.4476896750227	-58.96611742871236	-20.65871327177354	0.5199488358875598	0.5615396046002348	-0.4847847975490949	-1.232455836077264	0.670301881437124	-0.2450271400890654	1.613244044999461	-1.241744056167552	-1.241744056215695	-0.08170459079650357	-0.0934751399064548	-0.547906069918867	0.6874893538799512	4.52133024601108e-07	4.962828930307455e-07	-2.77836271350421e-06	-3.057284063980696e-07	5.417457165735519e-07	2.918419262110665e-07	4.37812638409888e-07
1.52	-0.3326753063769286	-0.03004383321250096	0.7707635309771319	1.150076506853782	-0.3050818327699021	0.002251700596295906	-0.3294378116853656	0.7926994284248509	0.7926994284249017	-0.1729724240706017	0.1668305954253164	0.1553285144019864	-0.02103693812296978	0.4470830156302872	0.1703035936703262	0.5132633299752533	-2.171637410048928	-0.004788437280126756	-0.7190929550674663	0.6056160288562829	-2.15931004530711	-2.159310045307401	0.006701960369633285	-0.04293845194100812	-0.5608188707603012	-0.09709921372499684	-0.1845657020073644	0.01871994550085289	-0.02562697578767765	-0.2503694030275966	0.1017146825704173	0.03825020996324972	0.1842703927455508	-5.0418521733705	-18.53618669428768	5.758925102249468	-2.85510769011279	-598.0331892126947	-59.32307725176134	-21.96738718200218	0.4696072489354485	0.5490852037981464	-0.550737262439814	-1.023990501704324	0.7257222589435358	-0.2551874020050142	1.576526149895286	-1.034723707595706	-1.034723707595706	0.03573120640785638	-0.07995265345478375	-0.4717369382040907	0.750359671813339	4.913799877152005e-07	5.889479834656e-07	-2.929263430477842e-06	-3.179232906340659e-07	5.869782882311103e-07	3.923710125834293e-07	4.670948260807408e-07
1.53	-0.3281811199936766	-0.02831355624316668	0.7758676244782141	1.128311031024965	-0.3050947484317621	-0.00494872834686699	-0.3233042761266054	0.7710568899590053	0.7710568899590964	-0.1729080098278562	0.1663969522140726	0.1496970912566292	-0.02197211820363114	0.4516902271896306	0.1757244008512913	0.5074505535784386	-2.181139120036249	0.002224383527563438	-0.7209105909924125	0.6209964978445852	-2.168872392578121	-2.168872392578165	0.006190760542337009	-0.04377986464999144	-0.565363064623543	-0.08992049639925827	-0.1783082185281433	0.01824418665826913	-0.02542611830278525	-0.2472895187219778	0.1029062746678505	0.03793700397236309	0.17898406551164	-4.438418228638791	-18.59602165113207	5.871497254151759	-2.927163752992571	-593.7007289463434	-59.48405500537095	-23.26894361274577	0.4467224160292515	0.5343988229845714	-0.6121367489815412	-0.8654000126952716	0.6923339903242967	-0.1322463652117917	1.504619515618521	-0.8683053997001384	-0.8683053996631322	-0.09309699481349427	-0.08405466639980028	-0.4303673435409512	0.7043402944993045	5.36893551408344e-07	6.577926816451754e-07	-3.119230880275121e-06	-3.380027859335457e-07	6.396797625464646e-07	4.914423177566243e-07	4.99779369960303e-07
1.54	-0.3236427726335118	-0.02652990713247498	0.7809104724311925	1.106460110343186	-0.3050368814858168	-0.01216477258477358	-0.3170197734294981	0.7493284649878806	0.7493284649880136	-0.1728484178668867	0.165955331058383	0.1440233048260083	-0.02283496860472608	0.455915211012793	0.1809780219418101	0.5010142203544518	-2.188726380641539	0.00936808428095523	-0.7222160140162532	0.6358094565257199	-2.176487346362984	-2.176487346362781	0.005737504014435938	-0.04453404083016272	-0.5692915278130538	-0.08263327781171183	-0.1720507350489218	0.01776842781568601	-0.02522526081789513	-0.2442096344163586	0.1040978667652839	0.03762379798147718	0.1736977382777297	-3.837902567842359	-18.65857434061248	5.988192968057263	-3.029391465795558	-589.4469563250261	-59.74423051965699	-24.56163430485888	0.3931617016992594	0.5156479857089226	-0.6754486278742529	-0.6411006252980469	0.7518982480838559	-0.1527448217839165	1.463024088461712	-0.6452450103658155	-0.6452450103658094	0.04731986628689844	-0.06250534769237481	-0.3485908034579139	0.7720599241749136	5.903343341485107e-07	7.55933478550667e-07	-3.345564212890381e-06	-3.609153162406325e-07	7.026861048612709e-07	6.105527228879183e-07	5.3997993554031e-07
1.55	-0.3190640666131216	-0.02469451985810195	0.7858859784446962	1.084542494205739	-0.3049073802706643	-0.01939072421324176	-0.3105902160632612	0.727533273500179	0.7275332735002146	-0.1727941370365359	0.1655063195930978	0.1383132598113637	-0.02362491234676638	0.4597526627476836	0.1860749932992044	0.4939930416392679	-2.194485235541644	0.01653691209370604	-0.7228573911472589	0.6499968443560905	-2.182232127431194	-2.182232127431032	0.005096622958291702	-0.04528128607680459	-0.5726029923256213	-0.07535244884243826	-0.1654646801861761	0.01666450664567872	-0.02502800101089083	-0.2419819709095501	0.1064055970140611	0.03719621001359091	0.1682112459729585	-2.900258147861293	-18.73068901830655	6.106649669376805	-3.392148366286533	-585.510478420332	-60.13097976312166	-25.84424862494087	0.3680985376905076	0.5029754388016653	-0.7293797663829987	-0.4964550731213263	0.7005484281163991	-0.001730196052530257	1.380820275486871	-0.4913942901008016	-0.4913942901068868	-0.1231329106464015	-0.0820534881828871	-0.3052568290854069	0.7068348100234289	6.529086518776384e-07	8.878284761621034e-07	-3.613797367013312e-06	-3.870919955782229e-07	7.775654472624018e-07	7.527516562318038e-07	5.888402652534376e-07
1.56	-0.3144491737497209	-0.02280891212454558	0.7907884872164398	1.062576654089141	-0.3047059561013353	-0.02661946882047844	-0.3040219399896882	0.7056901742747854	0.7056901742747222	-0.1727469331805628	0.1650495918003396	0.1325735336408075	-0.02434189971376997	0.4631525796148359	0.1910221137784767	0.4864147720023762	-2.198371176471936	0.02375267511628541	-0.7227746097700106	0.6635531979929467	-2.186068893901491	-2.186068893901369	0.004322109138894964	-0.04607730632475848	-0.5752277589953585	-0.06804200280437021	-0.1588786253234303	0.01556058547567197	-0.02483074120388611	-0.2397543074027416	0.1087133272628384	0.03676862204570528	0.1627247536681877	-1.962758440853847	-18.80664260844765	6.230134979590805	-3.798454863837864	-581.6171185383208	-60.63020538033717	-27.11634367354334	0.3056547281515749	0.4856778100845268	-0.7868668122157978	-0.2665178313354866	0.7612852900495682	-0.007913120133176084	1.336817249758808	-0.263642090783105	-0.2636420907831128	0.02059331363640046	-0.07226034795477673	-0.2112512348919056	0.7779833379338149	5.908888322914345e-07	1.174621206116508e-06	-3.237847342738494e-06	-3.010509509293994e-07	7.337180882231612e-07	8.495540483909138e-07	5.57104484391298e-07
1.57	-0.3098025450283499	-0.02087475037892112	0.7956124404975201	1.040581868082239	-0.304431653053734	-0.03384664072307371	-0.2973212430473154	0.6838190699384296	0.6838190699384197	-0.1727053640067621	0.1645865279745866	0.1268112027555584	-0.02498502166598703	0.4661055709201953	0.1957681775730321	0.4782881393152782	-2.200257679900636	0.03110231010471797	-0.7225185173783207	0.676463118977694	-2.187822648305985	-2.187822648306061	0.003949834121885722	-0.04655659464104688	-0.5771353527831334	-0.06059318301999825	-0.1526735248841415	0.0146949896439433	-0.02450722632597099	-0.2369034794418496	0.1097971638810236	0.03611496429882655	0.1574381219013615	-1.438474949291337	-18.70083788706465	6.311819537127263	-3.734859099802259	-577.845415677588	-60.79535174325193	-28.37380156755072	0.2800086011476883	0.4627731108950899	-0.8386370777931031	-0.1004307511334103	0.720962997316221	0.06392634680520816	1.249618797238534	-0.08191302505912294	-0.0819130250889025	-0.07218739414607374	-0.03863014003471189	-0.1650271836958089	0.7265683876278972	3.731263410610674e-07	1.65503610149962e-06	-2.056668345466497e-06	-7.473775129756007e-08	5.41462352383458e-07	8.896107640690553e-07	4.246235653100754e-07
